<svg width="12" height="13" viewBox="0 0 12 13" fill="none" xmlns="http://www.w3.org/2000/svg">
<path d="M1.75 4.25C1.75 3.14543 2.64543 2.25 3.75 2.25H8.25C9.35457 2.25 10.25 3.14543 10.25 4.25V8.75C10.25 9.85457 9.35457 10.75 8.25 10.75H3.75C2.64543 10.75 1.75 9.85457 1.75 8.75V4.25Z" stroke="white" stroke-width="0.75" stroke-linejoin="round"/>
<circle cx="6" cy="6.5" r="1.75" stroke="white" stroke-width="0.75" stroke-linejoin="round"/>
<path d="M8.75 4C8.75 4.27614 8.52614 4.5 8.25 4.5C7.97386 4.5 7.75 4.27614 7.75 4C7.75 3.72386 7.97386 3.5 8.25 3.5C8.52614 3.5 8.75 3.72386 8.75 4Z" fill="white"/>
</svg>
